<svg width="184" height="261" viewBox="0 0 184 261" fill="none" xmlns="http://www.w3.org/2000/svg">
<path d="M67.2275 82.5956C61.936 85.9029 55.1011 84.3258 51.7938 79.0344C48.4864 73.743 49.9787 66.7724 55.2701 63.4651L55.4058 63.3803C60.6972 60.0729 67.6169 61.7857 70.9243 67.0771C74.2316 72.3685 72.6546 79.2034 67.3631 82.5108L67.2275 82.5956ZM132.745 111.646C139.121 107.66 145.685 110.916 148.857 116.293C151.859 121.398 151.876 128.368 145.635 132.269C135.595 138.545 123.435 144.447 110.24 150.807C98.7582 156.286 86.4284 161.917 73.6917 167.802C65.5001 171.602 65.1272 179.759 69.113 186.136C73.2684 192.784 81.3923 197.329 89.1259 192.496L129.015 167.563C140.955 160.1 153.675 163.848 160.103 174.736C163.529 180.52 161.782 185.574 158.305 187.558C154.829 189.543 148.384 189.797 146.264 183.386L109.088 206.623C93.214 216.545 72.2683 211.712 62.3462 195.837C52.4242 179.963 57.1215 159.102 75.4888 147.433C51.4563 138.869 53.2532 107.934 76.047 93.6871L87.5795 86.4788C92.8709 83.1715 99.8415 84.6637 103.149 89.9552C106.456 95.2466 104.828 102.302 99.5369 105.609L79.8637 117.906C74.5722 121.213 72.9443 128.269 76.2516 133.56C79.559 138.851 86.6144 140.479 91.9058 137.172L132.745 111.646Z" fill="#F4F4F8"/>
</svg>
